<svg xmlns="http://www.w3.org/2000/svg" viewBox="0 0 56 56"><g id="Circles"><path d="M75,47v56A28.07,28.07,0,0,1,47,75h0A28.08,28.08,0,0,1,75,47Z" transform="translate(-47 -47)" style="fill:#ed1c24"/><path d="M103,75h0a27.93,27.93,0,0,1-27.85,28H75V47h.15A27.92,27.92,0,0,1,103,75Z" transform="translate(-47 -47)" style="fill:#0071bc"/></g><g id="Text"><path d="M71.14,86.41a5.06,5.06,0,0,1,0,.74,1.64,1.64,0,0,1-.13.48.7.7,0,0,1-.19.26.46.46,0,0,1-.25.08H59.36a.46.46,0,0,1-.24-.08.7.7,0,0,1-.19-.26,1.64,1.64,0,0,1-.13-.48,5.06,5.06,0,0,1,0-.74,5.35,5.35,0,0,1,0-.76,1.75,1.75,0,0,1,.12-.49.81.81,0,0,1,.2-.28.44.44,0,0,1,.25-.08h3.76V71.64l-3.25,1.8a2.8,2.8,0,0,1-.58.21.4.4,0,0,1-.36-.1.76.76,0,0,1-.18-.46,6.87,6.87,0,0,1,0-.92c0-.25,0-.45,0-.62a1.24,1.24,0,0,1,.08-.41.78.78,0,0,1,.17-.28,2.22,2.22,0,0,1,.3-.24l4.34-2.81a.85.85,0,0,1,.19-.1,1.7,1.7,0,0,1,.31-.06,3.19,3.19,0,0,1,.49,0h.79l1,0a2.84,2.84,0,0,1,.56.08.53.53,0,0,1,.25.15.41.41,0,0,1,.06.23V84.8h3.3a.44.44,0,0,1,.25.08.71.71,0,0,1,.21.28,1.75,1.75,0,0,1,.12.49A5.35,5.35,0,0,1,71.14,86.41Z" transform="translate(-47 -47)" style="fill:#d80720"/><path d="M70.64,85.91a5.06,5.06,0,0,1,0,.74,1.64,1.64,0,0,1-.13.48.7.7,0,0,1-.19.26.46.46,0,0,1-.25.08H58.86a.46.46,0,0,1-.24-.08.7.7,0,0,1-.19-.26,1.64,1.64,0,0,1-.13-.48,5.06,5.06,0,0,1,0-.74,5.35,5.35,0,0,1,0-.76,1.75,1.75,0,0,1,.12-.49.81.81,0,0,1,.2-.28.44.44,0,0,1,.25-.08h3.76V71.14l-3.25,1.8a2.8,2.8,0,0,1-.58.21.4.4,0,0,1-.36-.1.76.76,0,0,1-.18-.46,6.87,6.87,0,0,1,0-.92c0-.25,0-.45,0-.62a1.24,1.24,0,0,1,.08-.41.78.78,0,0,1,.17-.28,2.22,2.22,0,0,1,.3-.24l4.34-2.81a.85.85,0,0,1,.19-.1,1.7,1.7,0,0,1,.31-.06,3.19,3.19,0,0,1,.49,0h.79l1,0a2.84,2.84,0,0,1,.56.08.53.53,0,0,1,.25.15.41.41,0,0,1,.06.23V84.3H70a.44.44,0,0,1,.25.08.71.71,0,0,1,.21.28,1.75,1.75,0,0,1,.12.49A5.35,5.35,0,0,1,70.64,85.91Z" transform="translate(-47 -47)" style="fill:#d80720"/><path d="M70.14,85.41a5.06,5.06,0,0,1,0,.74,1.64,1.64,0,0,1-.13.48.7.7,0,0,1-.19.26.46.46,0,0,1-.25.08H58.36a.46.46,0,0,1-.24-.08.7.7,0,0,1-.19-.26,1.64,1.64,0,0,1-.13-.48,5.06,5.06,0,0,1,0-.74,5.35,5.35,0,0,1,0-.76,1.75,1.75,0,0,1,.12-.49.81.81,0,0,1,.2-.28.44.44,0,0,1,.25-.08h3.76V70.64l-3.25,1.8a2.8,2.8,0,0,1-.58.21.4.4,0,0,1-.36-.1.76.76,0,0,1-.18-.46,6.87,6.87,0,0,1,0-.92c0-.25,0-.45,0-.62a1.24,1.24,0,0,1,.08-.41.78.78,0,0,1,.17-.28,2.22,2.22,0,0,1,.3-.24l4.34-2.81a.85.85,0,0,1,.19-.1,1.7,1.7,0,0,1,.31-.06,3.19,3.19,0,0,1,.49,0h.79l1,0a2.84,2.84,0,0,1,.56.08.53.53,0,0,1,.25.15.41.41,0,0,1,.06.23V83.8h3.3a.44.44,0,0,1,.25.08.71.71,0,0,1,.21.28,1.75,1.75,0,0,1,.12.49A5.35,5.35,0,0,1,70.14,85.41Z" transform="translate(-47 -47)" style="fill:#d80720"/><path d="M69.64,84.91a5.06,5.06,0,0,1,0,.74,1.64,1.64,0,0,1-.13.48.7.7,0,0,1-.19.26.46.46,0,0,1-.25.08H57.86a.46.46,0,0,1-.24-.08.7.7,0,0,1-.19-.26,1.64,1.64,0,0,1-.13-.48,5.06,5.06,0,0,1,0-.74,5.35,5.35,0,0,1,0-.76,1.75,1.75,0,0,1,.12-.49.81.81,0,0,1,.2-.28.44.44,0,0,1,.25-.08h3.76V70.14l-3.25,1.8a2.8,2.8,0,0,1-.58.21.4.4,0,0,1-.36-.1.76.76,0,0,1-.18-.46,6.87,6.87,0,0,1,0-.92c0-.25,0-.45,0-.62a1.24,1.24,0,0,1,.08-.41.78.78,0,0,1,.17-.28,2.22,2.22,0,0,1,.3-.24l4.34-2.81a.85.85,0,0,1,.19-.1,1.7,1.7,0,0,1,.31-.06,3.19,3.19,0,0,1,.49,0h.79l1,0a2.84,2.84,0,0,1,.56.08.53.53,0,0,1,.25.15.41.41,0,0,1,.06.23V83.3H69a.44.44,0,0,1,.25.08.71.71,0,0,1,.21.28,1.75,1.75,0,0,1,.12.49A5.35,5.35,0,0,1,69.64,84.91Z" transform="translate(-47 -47)" style="fill:#d80720"/><path d="M69.14,84.41a5.06,5.06,0,0,1,0,.74,1.64,1.64,0,0,1-.13.48.7.7,0,0,1-.19.26.46.46,0,0,1-.25.08H57.36a.46.46,0,0,1-.24-.08.7.7,0,0,1-.19-.26,1.64,1.64,0,0,1-.13-.48,5.06,5.06,0,0,1,0-.74,5.35,5.35,0,0,1,0-.76,1.75,1.75,0,0,1,.12-.49.81.81,0,0,1,.2-.28.44.44,0,0,1,.25-.08h3.76V69.64l-3.25,1.8a2.8,2.8,0,0,1-.58.21.4.4,0,0,1-.36-.1.76.76,0,0,1-.18-.46,6.87,6.87,0,0,1,0-.92c0-.25,0-.45,0-.62a1.24,1.24,0,0,1,.08-.41.78.78,0,0,1,.17-.28,2.22,2.22,0,0,1,.3-.24l4.34-2.81a.85.85,0,0,1,.19-.1,1.7,1.7,0,0,1,.31-.06,3.19,3.19,0,0,1,.49,0h.79l1,0a2.84,2.84,0,0,1,.56.08.53.53,0,0,1,.25.15.41.41,0,0,1,.06.23V82.8h3.3a.44.44,0,0,1,.25.08.71.71,0,0,1,.21.28,1.75,1.75,0,0,1,.12.49A5.35,5.35,0,0,1,69.14,84.41Z" transform="translate(-47 -47)" style="fill:#d80720"/><path d="M68.64,83.91a5.06,5.06,0,0,1,0,.74,1.64,1.64,0,0,1-.13.48.7.7,0,0,1-.19.26.46.46,0,0,1-.25.08H56.86a.46.46,0,0,1-.24-.08.7.7,0,0,1-.19-.26,1.64,1.64,0,0,1-.13-.48,5.06,5.06,0,0,1,0-.74,5.35,5.35,0,0,1,0-.76,1.75,1.75,0,0,1,.12-.49.81.81,0,0,1,.2-.28.44.44,0,0,1,.25-.08h3.76V69.14l-3.25,1.8a2.8,2.8,0,0,1-.58.21.4.4,0,0,1-.36-.1.76.76,0,0,1-.18-.46,6.87,6.87,0,0,1,0-.92c0-.25,0-.45,0-.62a1.24,1.24,0,0,1,.08-.41.78.78,0,0,1,.17-.28,2.22,2.22,0,0,1,.3-.24l4.34-2.81a.85.85,0,0,1,.19-.1,1.7,1.7,0,0,1,.31-.06,3.19,3.19,0,0,1,.49,0h.79l1,0a2.84,2.84,0,0,1,.56.08.53.53,0,0,1,.25.15.41.41,0,0,1,.06.23V82.3H68a.44.44,0,0,1,.25.08.71.71,0,0,1,.21.28,1.75,1.75,0,0,1,.12.49A5.35,5.35,0,0,1,68.64,83.91Z" transform="translate(-47 -47)" style="fill:#d80720"/><path d="M98.59,86.41a5,5,0,0,1,.24.88.57.57,0,0,1-.12.5,1,1,0,0,1-.61.2c-.3,0-.7,0-1.21.05l-1.24,0a4,4,0,0,1-.68-.09.74.74,0,0,1-.33-.2,1,1,0,0,1-.15-.33l-1.38-4.05-7.59,0-1.27,4a1.15,1.15,0,0,1-.16.37.64.64,0,0,1-.33.23,2.2,2.2,0,0,1-.64.12,10.81,10.81,0,0,1-1.09,0,11,11,0,0,1-1.12,0,.84.84,0,0,1-.56-.23.6.6,0,0,1-.12-.51,5.4,5.4,0,0,1,.24-.87l6.17-18a1.57,1.57,0,0,1,.21-.43.77.77,0,0,1,.4-.25,3.18,3.18,0,0,1,.76-.12l1.28,0c.62,0,1.1,0,1.47,0a4,4,0,0,1,.85.11.82.82,0,0,1,.44.26,1.64,1.64,0,0,1,.23.46Zm-9.33-14.8h0l-2.83,8.6,5.74,0Z" transform="translate(-47 -47)" style="fill:#05669b"/><path d="M98.09,85.91a5,5,0,0,1,.24.88.57.57,0,0,1-.12.5,1,1,0,0,1-.61.2c-.3,0-.7,0-1.21.05l-1.24,0a4,4,0,0,1-.68-.09.74.74,0,0,1-.33-.2A1,1,0,0,1,94,86.9l-1.38-4.05-7.59,0-1.27,4a1.15,1.15,0,0,1-.16.37.64.64,0,0,1-.33.23,2.2,2.2,0,0,1-.64.12,10.81,10.81,0,0,1-1.09,0,11,11,0,0,1-1.12,0,.84.84,0,0,1-.56-.23.6.6,0,0,1-.12-.51,5.4,5.4,0,0,1,.24-.87l6.17-18a1.57,1.57,0,0,1,.21-.43.77.77,0,0,1,.4-.25,3.18,3.18,0,0,1,.76-.12l1.28,0c.62,0,1.1,0,1.47,0a4,4,0,0,1,.85.11.82.82,0,0,1,.44.26,1.64,1.64,0,0,1,.23.46Zm-9.33-14.8h0l-2.83,8.6,5.74,0Z" transform="translate(-47 -47)" style="fill:#05669b"/><path d="M97.59,85.41a5,5,0,0,1,.24.88.57.57,0,0,1-.12.5,1,1,0,0,1-.61.2c-.3,0-.7,0-1.21.05l-1.24,0a4,4,0,0,1-.68-.09.74.74,0,0,1-.33-.2,1,1,0,0,1-.15-.33l-1.38-4.05-7.59,0-1.27,4a1.15,1.15,0,0,1-.16.37.64.64,0,0,1-.33.23,2.2,2.2,0,0,1-.64.12,10.81,10.81,0,0,1-1.09,0,11,11,0,0,1-1.12,0,.84.84,0,0,1-.56-.23.6.6,0,0,1-.12-.51,5.4,5.4,0,0,1,.24-.87l6.17-18a1.57,1.57,0,0,1,.21-.43.77.77,0,0,1,.4-.25,3.18,3.18,0,0,1,.76-.12l1.28,0c.62,0,1.1,0,1.47,0a4,4,0,0,1,.85.11.82.82,0,0,1,.44.26,1.64,1.64,0,0,1,.23.46Zm-9.33-14.8h0l-2.83,8.6,5.74,0Z" transform="translate(-47 -47)" style="fill:#05669b"/><path d="M97.09,84.91a5,5,0,0,1,.24.88.57.57,0,0,1-.12.5,1,1,0,0,1-.61.2c-.3,0-.7,0-1.21.05l-1.24,0a4,4,0,0,1-.68-.09.74.74,0,0,1-.33-.2A1,1,0,0,1,93,85.9l-1.38-4.05-7.59,0-1.27,4a1.15,1.15,0,0,1-.16.37.64.64,0,0,1-.33.23,2.2,2.2,0,0,1-.64.12,10.81,10.81,0,0,1-1.09,0,11,11,0,0,1-1.12,0,.84.84,0,0,1-.56-.23.6.6,0,0,1-.12-.51,5.4,5.4,0,0,1,.24-.87l6.17-18a1.57,1.57,0,0,1,.21-.43.77.77,0,0,1,.4-.25,3.18,3.18,0,0,1,.76-.12l1.28,0c.62,0,1.1,0,1.47,0a4,4,0,0,1,.85.11.82.82,0,0,1,.44.26,1.64,1.64,0,0,1,.23.46Zm-9.33-14.8h0l-2.83,8.6,5.74,0Z" transform="translate(-47 -47)" style="fill:#05669b"/><path d="M96.59,84.41a5,5,0,0,1,.24.88.57.57,0,0,1-.12.5,1,1,0,0,1-.61.2c-.3,0-.7,0-1.21.05l-1.24,0a4,4,0,0,1-.68-.09.74.74,0,0,1-.33-.2,1,1,0,0,1-.15-.33l-1.38-4.05-7.59,0-1.27,4a1.15,1.15,0,0,1-.16.37.64.64,0,0,1-.33.23,2.2,2.2,0,0,1-.64.12,10.81,10.81,0,0,1-1.09,0,11,11,0,0,1-1.12,0,.84.84,0,0,1-.56-.23.6.6,0,0,1-.12-.51,5.4,5.4,0,0,1,.24-.87l6.17-18a1.57,1.57,0,0,1,.21-.43.77.77,0,0,1,.4-.25,3.18,3.18,0,0,1,.76-.12l1.28,0c.62,0,1.1,0,1.47,0a4,4,0,0,1,.85.11.82.82,0,0,1,.44.26,1.64,1.64,0,0,1,.23.46Zm-9.33-14.8h0l-2.83,8.6,5.74,0Z" transform="translate(-47 -47)" style="fill:#05669b"/><path d="M96.09,83.91a5,5,0,0,1,.24.88.57.57,0,0,1-.12.5,1,1,0,0,1-.61.2c-.3,0-.7,0-1.21.05l-1.24,0a4,4,0,0,1-.68-.09.74.74,0,0,1-.33-.2A1,1,0,0,1,92,84.9l-1.38-4.05-7.59,0-1.27,4a1.15,1.15,0,0,1-.16.37.64.64,0,0,1-.33.23,2.2,2.2,0,0,1-.64.12,10.81,10.81,0,0,1-1.09,0,11,11,0,0,1-1.12,0,.84.84,0,0,1-.56-.23.6.6,0,0,1-.12-.51,5.4,5.4,0,0,1,.24-.87l6.17-18a1.57,1.57,0,0,1,.21-.43.77.77,0,0,1,.4-.25,3.18,3.18,0,0,1,.76-.12l1.28,0c.62,0,1.1,0,1.47,0a4,4,0,0,1,.85.11.82.82,0,0,1,.44.26,1.64,1.64,0,0,1,.23.46Zm-9.33-14.8h0l-2.83,8.6,5.74,0Z" transform="translate(-47 -47)" style="fill:#05669b"/><path d="M68.64,83.91a5.06,5.06,0,0,1,0,.74,1.64,1.64,0,0,1-.13.48.7.7,0,0,1-.19.26.46.46,0,0,1-.25.08H56.86a.46.46,0,0,1-.24-.08.7.7,0,0,1-.19-.26,1.64,1.64,0,0,1-.13-.48,5.06,5.06,0,0,1,0-.74,5.35,5.35,0,0,1,0-.76,1.75,1.75,0,0,1,.12-.49.81.81,0,0,1,.2-.28.44.44,0,0,1,.25-.08h3.76V69.14l-3.25,1.8a2.8,2.8,0,0,1-.58.21.4.4,0,0,1-.36-.1.76.76,0,0,1-.18-.46,6.87,6.87,0,0,1,0-.92c0-.25,0-.45,0-.62a1.24,1.24,0,0,1,.08-.41.78.78,0,0,1,.17-.28,2.22,2.22,0,0,1,.3-.24l4.34-2.81a.85.85,0,0,1,.19-.1,1.7,1.7,0,0,1,.31-.06,3.19,3.19,0,0,1,.49,0h.79l1,0a2.84,2.84,0,0,1,.56.08.53.53,0,0,1,.25.15.41.41,0,0,1,.06.23V82.3H68a.44.44,0,0,1,.25.08.71.71,0,0,1,.21.28,1.75,1.75,0,0,1,.12.49A5.35,5.35,0,0,1,68.64,83.91Z" transform="translate(-47 -47)" style="fill:#fff"/><path d="M96.09,83.91a5,5,0,0,1,.24.88.57.57,0,0,1-.12.5,1,1,0,0,1-.61.2c-.3,0-.7,0-1.21.05l-1.24,0a4,4,0,0,1-.68-.09.74.74,0,0,1-.33-.2A1,1,0,0,1,92,84.9l-1.38-4.05-7.59,0-1.27,4a1.15,1.15,0,0,1-.16.37.64.64,0,0,1-.33.23,2.2,2.2,0,0,1-.64.12,10.81,10.81,0,0,1-1.09,0,11,11,0,0,1-1.12,0,.84.84,0,0,1-.56-.23.6.6,0,0,1-.12-.51,5.69,5.69,0,0,1,.24-.87l6.17-18a1.57,1.57,0,0,1,.21-.43.77.77,0,0,1,.4-.25,3.18,3.18,0,0,1,.76-.12l1.28,0c.62,0,1.1,0,1.47,0a4.79,4.79,0,0,1,.85.11.82.82,0,0,1,.44.26,1.58,1.58,0,0,1,.23.47Zm-9.33-14.8h0l-2.83,8.6,5.74,0Z" transform="translate(-47 -47)" style="fill:#fff"/></g></svg>