<svg id="Layer_1" data-name="Layer 1" xmlns="http://www.w3.org/2000/svg" xmlns:xlink="http://www.w3.org/1999/xlink" viewBox="0 0 150 150"><defs><linearGradient id="linear-gradient" x1="16.93" y1="112.25" x2="71" y2="112.25" gradientUnits="userSpaceOnUse"><stop offset="0.1" stop-color="#2e3192"/><stop offset="1" stop-color="#0071bc"/></linearGradient><linearGradient id="linear-gradient-2" x1="1222.08" y1="1988.55" x2="1276.14" y2="1988.55" gradientTransform="translate(1355.14 2026.3) rotate(180)" gradientUnits="userSpaceOnUse"><stop offset="0.1" stop-color="#911c24"/><stop offset="1" stop-color="#ed1c24"/></linearGradient></defs><path d="M63.93,148.3,62.24,150,43.47,131.12,24.71,112.24h0a26.82,26.82,0,0,1,0-37.76L43.47,93.37l18.77,18.87L63.93,114A24.38,24.38,0,0,1,63.93,148.3Z" style="fill:url(#linear-gradient)"/><path d="M64.93,36l-1.69,1.71L44.47,56.63,25.7,75.5a26.82,26.82,0,0,0,0,37.76L15.2,102.67a38,38,0,0,1-7-9.59,38.65,38.65,0,0,1,0-35.16,38,38,0,0,1,7-9.59L25.7,37.75,44.47,18.87,63.24,0l1.69,1.7A24.38,24.38,0,0,1,64.93,36Z" style="fill:#0071bc"/><path d="M86.07,1.7,87.76,0l18.77,18.88,18.76,18.88h0a26.82,26.82,0,0,1,0,37.76L106.53,56.63,87.76,37.76,86.07,36A24.38,24.38,0,0,1,86.07,1.7Z" style="fill:url(#linear-gradient-2)"/><path d="M85.07,114l1.69-1.71,18.77-18.88L124.3,74.5a26.82,26.82,0,0,0,0-37.76l10.5,10.59a38,38,0,0,1,7,9.59,38.65,38.65,0,0,1,0,35.16,38,38,0,0,1-7,9.59l-10.5,10.58-18.77,18.88L86.76,150l-1.69-1.7A24.38,24.38,0,0,1,85.07,114Z" style="fill:#ed1c24"/></svg>