<svg xmlns="http://www.w3.org/2000/svg" viewBox="0 0 56 56"><g id="Layer_2" data-name="Layer 2"><path d="M75,47v56A28.07,28.07,0,0,1,47,75h0A28.08,28.08,0,0,1,75,47Z" transform="translate(-47 -47)" style="fill:#ed1c24"/><path d="M103,75h0a27.93,27.93,0,0,1-27.85,28H75V47h.15A27.92,27.92,0,0,1,103,75Z" transform="translate(-47 -47)" style="fill:#0071bc"/></g><g id="Layer_3" data-name="Layer 3"><path d="M72.47,87.64a6.53,6.53,0,0,1,0,.84,2.25,2.25,0,0,1-.15.54.71.71,0,0,1-.22.29.47.47,0,0,1-.28.09H59.22a.46.46,0,0,1-.27-.09.71.71,0,0,1-.22-.29,2.25,2.25,0,0,1-.15-.54,7.17,7.17,0,0,1,0-1.69,1.52,1.52,0,0,1,.14-.55.75.75,0,0,1,.22-.31.45.45,0,0,1,.28-.1h4.23V71l-3.65,2a2.71,2.71,0,0,1-.66.24.44.44,0,0,1-.41-.1,1,1,0,0,1-.2-.52,9,9,0,0,1-.05-1,6.86,6.86,0,0,1,0-.69,1.9,1.9,0,0,1,.08-.47,1,1,0,0,1,.2-.32,2,2,0,0,1,.33-.26L64,66.73a.66.66,0,0,1,.22-.12,2,2,0,0,1,.34-.07,4.11,4.11,0,0,1,.55,0H66l1.08,0a3.33,3.33,0,0,1,.63.09.5.5,0,0,1,.28.17.44.44,0,0,1,.07.26V85.83h3.71a.53.53,0,0,1,.29.1.86.86,0,0,1,.23.31,2.08,2.08,0,0,1,.14.55A6.81,6.81,0,0,1,72.47,87.64Z" transform="translate(-47 -47)" style="fill:#d80720"/><path d="M72,87.14a6.53,6.53,0,0,1,0,.84,2.25,2.25,0,0,1-.15.54.71.71,0,0,1-.22.29.47.47,0,0,1-.28.09H58.72a.46.46,0,0,1-.27-.09.71.71,0,0,1-.22-.29,2.25,2.25,0,0,1-.15-.54,7.17,7.17,0,0,1,0-1.69,1.52,1.52,0,0,1,.14-.55.75.75,0,0,1,.22-.31.45.45,0,0,1,.28-.1H63V70.53l-3.65,2a2.71,2.71,0,0,1-.66.24.44.44,0,0,1-.41-.1,1,1,0,0,1-.2-.52,9,9,0,0,1-.05-1,6.86,6.86,0,0,1,0-.69,1.9,1.9,0,0,1,.08-.47,1,1,0,0,1,.2-.32,2,2,0,0,1,.33-.26l4.89-3.16a.66.66,0,0,1,.22-.12,2,2,0,0,1,.34-.07,4.11,4.11,0,0,1,.55,0h.89l1.08,0a3.33,3.33,0,0,1,.63.09.5.5,0,0,1,.28.17.44.44,0,0,1,.07.26V85.33h3.71a.53.53,0,0,1,.29.1.86.86,0,0,1,.23.31,2.08,2.08,0,0,1,.14.55A6.81,6.81,0,0,1,72,87.14Z" transform="translate(-47 -47)" style="fill:#d80720"/><path d="M71.47,86.64a6.53,6.53,0,0,1,0,.84,2.25,2.25,0,0,1-.15.54.71.71,0,0,1-.22.29.47.47,0,0,1-.28.09H58.22a.46.46,0,0,1-.27-.09.71.71,0,0,1-.22-.29,2.25,2.25,0,0,1-.15-.54,7.17,7.17,0,0,1,0-1.69,1.52,1.52,0,0,1,.14-.55.75.75,0,0,1,.22-.31.45.45,0,0,1,.28-.1h4.23V70l-3.65,2a2.71,2.71,0,0,1-.66.24.44.44,0,0,1-.41-.1,1,1,0,0,1-.2-.52,9,9,0,0,1-.05-1,6.86,6.86,0,0,1,0-.69,1.9,1.9,0,0,1,.08-.47,1,1,0,0,1,.2-.32,2,2,0,0,1,.33-.26L63,65.73a.66.66,0,0,1,.22-.12,2,2,0,0,1,.34-.07,4.11,4.11,0,0,1,.55,0H65l1.08,0a3.33,3.33,0,0,1,.63.09.5.5,0,0,1,.28.17.44.44,0,0,1,.07.26V84.83h3.71a.53.53,0,0,1,.29.1.86.86,0,0,1,.23.31,2.08,2.08,0,0,1,.14.55A6.81,6.81,0,0,1,71.47,86.64Z" transform="translate(-47 -47)" style="fill:#d80720"/><path d="M71,86.14a6.53,6.53,0,0,1,0,.84,2.25,2.25,0,0,1-.15.54.71.71,0,0,1-.22.29.47.47,0,0,1-.28.09H57.72a.46.46,0,0,1-.27-.09.71.71,0,0,1-.22-.29,2.25,2.25,0,0,1-.15-.54,7.17,7.17,0,0,1,0-1.69,1.52,1.52,0,0,1,.14-.55.75.75,0,0,1,.22-.31.45.45,0,0,1,.28-.1H62V69.53l-3.65,2a2.71,2.71,0,0,1-.66.24.44.44,0,0,1-.41-.1,1,1,0,0,1-.2-.52,9,9,0,0,1-.05-1,6.86,6.86,0,0,1,0-.69,1.9,1.9,0,0,1,.08-.47,1,1,0,0,1,.2-.32,2,2,0,0,1,.33-.26l4.89-3.16a.66.66,0,0,1,.22-.12,2,2,0,0,1,.34-.07,4.11,4.11,0,0,1,.55,0h.89l1.08,0a3.33,3.33,0,0,1,.63.09.5.5,0,0,1,.28.17.44.44,0,0,1,.07.26V84.33h3.71a.53.53,0,0,1,.29.1.86.86,0,0,1,.23.31,2.08,2.08,0,0,1,.14.55A6.81,6.81,0,0,1,71,86.14Z" transform="translate(-47 -47)" style="fill:#d80720"/><path d="M70.47,85.64a6.53,6.53,0,0,1,0,.84,2.25,2.25,0,0,1-.15.54.71.71,0,0,1-.22.29.47.47,0,0,1-.28.09H57.22a.46.46,0,0,1-.27-.09.71.71,0,0,1-.22-.29,2.25,2.25,0,0,1-.15-.54,7.17,7.17,0,0,1,0-1.69,1.52,1.52,0,0,1,.14-.55.75.75,0,0,1,.22-.31.45.45,0,0,1,.28-.1h4.23V69l-3.65,2a2.71,2.71,0,0,1-.66.24.44.44,0,0,1-.41-.1,1,1,0,0,1-.2-.52,9,9,0,0,1-.05-1,6.86,6.86,0,0,1,0-.69,1.9,1.9,0,0,1,.08-.47,1,1,0,0,1,.2-.32,2,2,0,0,1,.33-.26L62,64.73a.66.66,0,0,1,.22-.12,2,2,0,0,1,.34-.07,4.11,4.11,0,0,1,.55,0H64l1.08,0a3.33,3.33,0,0,1,.63.09.5.5,0,0,1,.28.17.44.44,0,0,1,.07.26V83.83h3.71a.53.53,0,0,1,.29.1.86.86,0,0,1,.23.31,2.08,2.08,0,0,1,.14.55A6.81,6.81,0,0,1,70.47,85.64Z" transform="translate(-47 -47)" style="fill:#d80720"/><path d="M97.86,82.55a6.65,6.65,0,0,1-.32,2.2,5.78,5.78,0,0,1-.92,1.74,6,6,0,0,1-1.4,1.31,8.41,8.41,0,0,1-1.8.9,11.12,11.12,0,0,1-2.1.53,17,17,0,0,1-2.48.17l-6,0a1.4,1.4,0,0,1-1-.34,1.42,1.42,0,0,1-.4-1.11l-.07-19.83a1.28,1.28,0,0,1,1.37-1.46l5.71,0A15.09,15.09,0,0,1,92,67a7,7,0,0,1,2.44,1,4.59,4.59,0,0,1,1.53,1.8,6,6,0,0,1,.54,2.56A5.65,5.65,0,0,1,96.27,74a4.61,4.61,0,0,1-.61,1.33,4.73,4.73,0,0,1-1,1.06,5.25,5.25,0,0,1-1.34.74,5.86,5.86,0,0,1,1.78.61,4.93,4.93,0,0,1,1.43,1.13,5.25,5.25,0,0,1,1,1.62A6,6,0,0,1,97.86,82.55Zm-6-9.56a3.37,3.37,0,0,0-.21-1.23,2.16,2.16,0,0,0-.64-.9,2.88,2.88,0,0,0-1.06-.55,6.14,6.14,0,0,0-1.72-.19H85.89l0,5.91h2.58a4.58,4.58,0,0,0,1.6-.25,2.67,2.67,0,0,0,1-.65,2.75,2.75,0,0,0,.59-1A3.5,3.5,0,0,0,91.85,73Zm1.22,9.74a3.74,3.74,0,0,0-.27-1.42,2.77,2.77,0,0,0-.78-1,3.53,3.53,0,0,0-1.3-.65,7.8,7.8,0,0,0-2.06-.22H85.92l0,6.47h3.34a5.42,5.42,0,0,0,1.63-.21,3.44,3.44,0,0,0,1.14-.6,2.83,2.83,0,0,0,.75-1A3.18,3.18,0,0,0,93.07,82.73Z" transform="translate(-47 -47)" style="fill:#05669b"/><path d="M97.36,82.05a6.65,6.65,0,0,1-.32,2.2A5.78,5.78,0,0,1,96.12,86a6,6,0,0,1-1.4,1.31,8.41,8.41,0,0,1-1.8.9,11.12,11.12,0,0,1-2.1.53,17,17,0,0,1-2.48.17l-6,0a1.4,1.4,0,0,1-1-.34,1.42,1.42,0,0,1-.4-1.11l-.07-19.83a1.28,1.28,0,0,1,1.37-1.46l5.71,0a15.09,15.09,0,0,1,3.55.34,7,7,0,0,1,2.44,1,4.59,4.59,0,0,1,1.53,1.8A6,6,0,0,1,96,71.91a5.65,5.65,0,0,1-.21,1.56,4.61,4.61,0,0,1-.61,1.33,4.73,4.73,0,0,1-1,1.06,5.25,5.25,0,0,1-1.34.74,5.86,5.86,0,0,1,1.78.61A4.93,4.93,0,0,1,96,78.34,5.25,5.25,0,0,1,97,80,6,6,0,0,1,97.36,82.05Zm-6-9.56a3.37,3.37,0,0,0-.21-1.23,2.16,2.16,0,0,0-.64-.9,2.88,2.88,0,0,0-1.06-.55,6.14,6.14,0,0,0-1.72-.19H85.39l0,5.91H88a4.58,4.58,0,0,0,1.6-.25,2.67,2.67,0,0,0,1-.65,2.75,2.75,0,0,0,.59-1A3.5,3.5,0,0,0,91.35,72.49Zm1.22,9.74a3.74,3.74,0,0,0-.27-1.42,2.77,2.77,0,0,0-.78-1,3.53,3.53,0,0,0-1.3-.65,7.8,7.8,0,0,0-2.06-.22H85.42l0,6.47h3.34a5.42,5.42,0,0,0,1.63-.21,3.44,3.44,0,0,0,1.14-.6,2.83,2.83,0,0,0,.75-1A3.18,3.18,0,0,0,92.57,82.23Z" transform="translate(-47 -47)" style="fill:#05669b"/><path d="M96.86,81.55a6.65,6.65,0,0,1-.32,2.2,5.78,5.78,0,0,1-.92,1.74,6,6,0,0,1-1.4,1.31,8.41,8.41,0,0,1-1.8.9,11.12,11.12,0,0,1-2.1.53,17,17,0,0,1-2.48.17l-6,0a1.4,1.4,0,0,1-1-.34,1.42,1.42,0,0,1-.4-1.11l-.07-19.83a1.28,1.28,0,0,1,1.37-1.46l5.71,0A15.09,15.09,0,0,1,91,66a7,7,0,0,1,2.44,1,4.59,4.59,0,0,1,1.53,1.8,6,6,0,0,1,.54,2.56A5.65,5.65,0,0,1,95.27,73a4.61,4.61,0,0,1-.61,1.33,4.73,4.73,0,0,1-1,1.06,5.25,5.25,0,0,1-1.34.74,5.86,5.86,0,0,1,1.78.61,4.93,4.93,0,0,1,1.43,1.13,5.25,5.25,0,0,1,1,1.62A6,6,0,0,1,96.86,81.55Zm-6-9.56a3.37,3.37,0,0,0-.21-1.23,2.16,2.16,0,0,0-.64-.9,2.88,2.88,0,0,0-1.06-.55,6.14,6.14,0,0,0-1.72-.19H84.89l0,5.91h2.58a4.58,4.58,0,0,0,1.6-.25,2.67,2.67,0,0,0,1-.65,2.75,2.75,0,0,0,.59-1A3.5,3.5,0,0,0,90.85,72Zm1.22,9.74a3.74,3.74,0,0,0-.27-1.42,2.77,2.77,0,0,0-.78-1,3.53,3.53,0,0,0-1.3-.65,7.8,7.8,0,0,0-2.06-.22H84.92l0,6.47h3.34a5.42,5.42,0,0,0,1.63-.21,3.44,3.44,0,0,0,1.14-.6,2.83,2.83,0,0,0,.75-1A3.18,3.18,0,0,0,92.07,81.73Z" transform="translate(-47 -47)" style="fill:#05669b"/><path d="M96.36,81.05a6.65,6.65,0,0,1-.32,2.2A5.78,5.78,0,0,1,95.12,85a6,6,0,0,1-1.4,1.31,8.41,8.41,0,0,1-1.8.9,11.12,11.12,0,0,1-2.1.53,17,17,0,0,1-2.48.17l-6,0a1.4,1.4,0,0,1-1-.34,1.42,1.42,0,0,1-.4-1.11l-.07-19.83a1.28,1.28,0,0,1,1.37-1.46l5.71,0a15.09,15.09,0,0,1,3.55.34,7,7,0,0,1,2.44,1,4.59,4.59,0,0,1,1.53,1.8A6,6,0,0,1,95,70.91a5.65,5.65,0,0,1-.21,1.56,4.61,4.61,0,0,1-.61,1.33,4.73,4.73,0,0,1-1,1.06,5.25,5.25,0,0,1-1.34.74,5.86,5.86,0,0,1,1.78.61A4.93,4.93,0,0,1,95,77.34,5.25,5.25,0,0,1,96,79,6,6,0,0,1,96.36,81.05Zm-6-9.56a3.37,3.37,0,0,0-.21-1.23,2.16,2.16,0,0,0-.64-.9,2.88,2.88,0,0,0-1.06-.55,6.14,6.14,0,0,0-1.72-.19H84.39l0,5.91H87a4.58,4.58,0,0,0,1.6-.25,2.67,2.67,0,0,0,1-.65,2.75,2.75,0,0,0,.59-1A3.5,3.5,0,0,0,90.35,71.49Zm1.22,9.74a3.74,3.74,0,0,0-.27-1.42,2.77,2.77,0,0,0-.78-1,3.53,3.53,0,0,0-1.3-.65,7.8,7.8,0,0,0-2.06-.22H84.42l0,6.47h3.34a5.42,5.42,0,0,0,1.63-.21,3.44,3.44,0,0,0,1.14-.6,2.83,2.83,0,0,0,.75-1A3.18,3.18,0,0,0,91.57,81.23Z" transform="translate(-47 -47)" style="fill:#05669b"/><path d="M95.86,80.55a6.65,6.65,0,0,1-.32,2.2,5.78,5.78,0,0,1-.92,1.74,6,6,0,0,1-1.4,1.31,8.41,8.41,0,0,1-1.8.9,11.12,11.12,0,0,1-2.1.53,17,17,0,0,1-2.48.17l-6,0a1.4,1.4,0,0,1-1-.34,1.42,1.42,0,0,1-.4-1.11l-.07-19.83a1.28,1.28,0,0,1,1.37-1.46l5.71,0A15.09,15.09,0,0,1,90,65a7,7,0,0,1,2.44,1,4.59,4.59,0,0,1,1.53,1.8,6,6,0,0,1,.54,2.56A5.65,5.65,0,0,1,94.27,72a4.61,4.61,0,0,1-.61,1.33,4.73,4.73,0,0,1-1,1.06,5.25,5.25,0,0,1-1.34.74,5.86,5.86,0,0,1,1.78.61,4.93,4.93,0,0,1,1.43,1.13,5.25,5.25,0,0,1,1,1.62A6,6,0,0,1,95.86,80.55Zm-6-9.56a3.37,3.37,0,0,0-.21-1.23,2.16,2.16,0,0,0-.64-.9,2.88,2.88,0,0,0-1.06-.55,6.14,6.14,0,0,0-1.72-.19H83.89l0,5.91h2.58a4.58,4.58,0,0,0,1.6-.25,2.67,2.67,0,0,0,1-.65,2.75,2.75,0,0,0,.59-1A3.5,3.5,0,0,0,89.85,71Zm1.22,9.74a3.74,3.74,0,0,0-.27-1.42,2.77,2.77,0,0,0-.78-1,3.53,3.53,0,0,0-1.3-.65,7.8,7.8,0,0,0-2.06-.22H83.92l0,6.47h3.34a5.42,5.42,0,0,0,1.63-.21,3.44,3.44,0,0,0,1.14-.6,2.83,2.83,0,0,0,.75-1A3.18,3.18,0,0,0,91.07,80.73Z" transform="translate(-47 -47)" style="fill:#05669b"/><path d="M70.47,85.64a6.53,6.53,0,0,1,0,.84,2.25,2.25,0,0,1-.15.54.71.71,0,0,1-.22.29.47.47,0,0,1-.28.09H57.22a.46.46,0,0,1-.27-.09.71.71,0,0,1-.22-.29,2.25,2.25,0,0,1-.15-.54,7.17,7.17,0,0,1,0-1.69,1.52,1.52,0,0,1,.14-.55.75.75,0,0,1,.22-.31.45.45,0,0,1,.28-.1h4.23V69l-3.65,2a2.71,2.71,0,0,1-.66.24.44.44,0,0,1-.41-.1,1,1,0,0,1-.2-.52,9,9,0,0,1-.05-1,6.86,6.86,0,0,1,0-.69,1.9,1.9,0,0,1,.08-.47,1,1,0,0,1,.2-.32,2,2,0,0,1,.33-.26L62,64.73a.66.66,0,0,1,.22-.12,2,2,0,0,1,.34-.07,4.11,4.11,0,0,1,.55,0H64l1.08,0a3.33,3.33,0,0,1,.63.09.5.5,0,0,1,.28.17.44.44,0,0,1,.07.26V83.83h3.71a.53.53,0,0,1,.29.1.86.86,0,0,1,.23.31,2.08,2.08,0,0,1,.14.55A6.81,6.81,0,0,1,70.47,85.64Z" transform="translate(-47 -47)" style="fill:#fff"/><path d="M95.86,80.55a6.65,6.65,0,0,1-.32,2.2,5.78,5.78,0,0,1-.92,1.74,6,6,0,0,1-1.4,1.31,8.41,8.41,0,0,1-1.8.9,11.12,11.12,0,0,1-2.1.53,17,17,0,0,1-2.48.17l-6,0a1.4,1.4,0,0,1-1-.34,1.42,1.42,0,0,1-.4-1.11l-.07-19.83a1.28,1.28,0,0,1,1.37-1.46l5.71,0A15.09,15.09,0,0,1,90,65a7,7,0,0,1,2.44,1,4.59,4.59,0,0,1,1.53,1.8,6,6,0,0,1,.54,2.56A5.65,5.65,0,0,1,94.27,72a4.61,4.61,0,0,1-.61,1.33,4.73,4.73,0,0,1-1,1.06,5.25,5.25,0,0,1-1.34.74,5.86,5.86,0,0,1,1.78.61,4.93,4.93,0,0,1,1.43,1.13,5.25,5.25,0,0,1,1,1.62A6,6,0,0,1,95.86,80.55Zm-6-9.56a3.37,3.37,0,0,0-.21-1.23,2.16,2.16,0,0,0-.64-.9,2.88,2.88,0,0,0-1.06-.55,6.14,6.14,0,0,0-1.72-.19H83.89l0,5.91h2.58a4.58,4.58,0,0,0,1.6-.25,2.67,2.67,0,0,0,1-.65,2.75,2.75,0,0,0,.59-1A3.5,3.5,0,0,0,89.85,71Zm1.22,9.74a3.74,3.74,0,0,0-.27-1.42,2.77,2.77,0,0,0-.78-1,3.53,3.53,0,0,0-1.3-.65,7.8,7.8,0,0,0-2.06-.22H83.92l0,6.47h3.34a5.42,5.42,0,0,0,1.63-.21,3.44,3.44,0,0,0,1.14-.6,2.83,2.83,0,0,0,.75-1A3.18,3.18,0,0,0,91.07,80.73Z" transform="translate(-47 -47)" style="fill:#fff"/></g></svg>