<svg xmlns="http://www.w3.org/2000/svg" viewBox="0 0 56 56"><g id="Layer_2" data-name="Layer 2"><path d="M74.85,47v56A28,28,0,0,1,47,75h0A28,28,0,0,1,74.85,47Z" transform="translate(-47 -47)" style="fill:#ed1c24"/><path d="M103,75h0a28,28,0,0,1-28,28h-.15V47H75A28,28,0,0,1,103,75Z" transform="translate(-47 -47)" style="fill:#0071bc"/></g><g id="Layer_3" data-name="Layer 3"><text transform="translate(9.3 42.63)" style="font-size:36px;fill:#d80720;font-family:Calibri-Bold, Calibri;font-weight:700">1</text><text transform="translate(9.05 42.38)" style="font-size:36px;fill:#d80720;font-family:Calibri-Bold, Calibri;font-weight:700">1</text><text transform="translate(8.8 42.13)" style="font-size:36px;fill:#d80720;font-family:Calibri-Bold, Calibri;font-weight:700">1</text><text transform="translate(8.55 41.88)" style="font-size:36px;fill:#d80720;font-family:Calibri-Bold, Calibri;font-weight:700">1</text><text transform="translate(8.3 41.63)" style="font-size:36px;fill:#d80720;font-family:Calibri-Bold, Calibri;font-weight:700">1</text><text transform="translate(8.05 41.38)" style="font-size:36px;fill:#d80720;font-family:Calibri-Bold, Calibri;font-weight:700">1</text><text transform="translate(7.8 41.13)" style="font-size:36px;fill:#d80720;font-family:Calibri-Bold, Calibri;font-weight:700">1</text><text transform="translate(7.55 40.88)" style="font-size:36px;fill:#d80720;font-family:Calibri-Bold, Calibri;font-weight:700">1</text><text transform="translate(7.3 40.63)" style="font-size:36px;fill:#d80720;font-family:Calibri-Bold, Calibri;font-weight:700">1</text><text transform="translate(7.05 40.38)" style="font-size:36px;fill:#d80720;font-family:Calibri-Bold, Calibri;font-weight:700">1</text><text transform="translate(6.8 40.13)" style="font-size:36px;fill:#d80720;font-family:Calibri-Bold, Calibri;font-weight:700">1</text><text transform="translate(32.36 42.67) rotate(-0.2)" style="font-size:36px;fill:#05669b;font-family:Calibri-Bold, Calibri;font-weight:700">B</text><text transform="translate(32.11 42.42) rotate(-0.2)" style="font-size:36px;fill:#05669b;font-family:Calibri-Bold, Calibri;font-weight:700">B</text><text transform="translate(31.86 42.17) rotate(-0.2)" style="font-size:36px;fill:#05669b;font-family:Calibri-Bold, Calibri;font-weight:700">B</text><text transform="translate(31.61 41.92) rotate(-0.2)" style="font-size:36px;fill:#05669b;font-family:Calibri-Bold, Calibri;font-weight:700">B</text><text transform="translate(31.36 41.67) rotate(-0.2)" style="font-size:36px;fill:#05669b;font-family:Calibri-Bold, Calibri;font-weight:700">B</text><text transform="translate(31.11 41.42) rotate(-0.2)" style="font-size:36px;fill:#05669b;font-family:Calibri-Bold, Calibri;font-weight:700">B</text><text transform="translate(30.86 41.17) rotate(-0.2)" style="font-size:36px;fill:#05669b;font-family:Calibri-Bold, Calibri;font-weight:700">B</text><text transform="translate(30.61 40.92) rotate(-0.2)" style="font-size:36px;fill:#05669b;font-family:Calibri-Bold, Calibri;font-weight:700">B</text><text transform="translate(30.36 40.67) rotate(-0.2)" style="font-size:36px;fill:#05669b;font-family:Calibri-Bold, Calibri;font-weight:700">B</text><text transform="translate(30.11 40.42) rotate(-0.2)" style="font-size:36px;fill:#05669b;font-family:Calibri-Bold, Calibri;font-weight:700">B</text><text transform="translate(29.86 40.17) rotate(-0.2)" style="font-size:36px;fill:#05669b;font-family:Calibri-Bold, Calibri;font-weight:700">B</text><text transform="translate(6.8 40.13)" style="font-size:36px;fill:#fff;font-family:Calibri-Bold, Calibri;font-weight:700">1</text><text transform="translate(29.87 40.17) rotate(-0.2)" style="font-size:36px;fill:#fff;font-family:Calibri-Bold, Calibri;font-weight:700">B</text></g></svg>