<?xml version="1.0" standalone="no"?>
<!DOCTYPE svg PUBLIC "-//W3C//DTD SVG 20010904//EN"
 "http://www.w3.org/TR/2001/REC-SVG-20010904/DTD/svg10.dtd">
<svg version="1.0" xmlns="http://www.w3.org/2000/svg"
 width="700.000000pt" height="700.000000pt" viewBox="0 0 700.000000 700.000000"
 preserveAspectRatio="xMidYMid meet">
<metadata>
Created by potrace 1.14, written by Peter Selinger 2001-2017
</metadata>
<g transform="translate(0.000000,700.000000) scale(0.100000,-0.100000)"
fill="#000000" stroke="none">
<path d="M1799 5813 c-636 -637 -1181 -1190 -1211 -1229 -205 -260 -341 -589
-375 -905 -10 -84 -9 -326 0 -409 13 -113 59 -313 87 -375 5 -11 18 -46 29
-77 59 -165 189 -375 326 -526 85 -94 2252 -2262 2261 -2262 5 0 41 35 82 77
184 193 282 397 318 661 7 47 7 215 0 267 -22 183 -104 383 -217 535 -32 44
-438 457 -971 991 l-916 916 935 934 c586 586 958 965 998 1017 211 280 274
620 181 987 -32 127 -134 314 -232 425 -60 68 -123 130 -133 130 -3 0 -526
-521 -1162 -1157z"/>
<path d="M4020 6912 c-260 -267 -370 -571 -337 -930 17 -184 102 -402 216
-552 27 -36 461 -478 965 -982 504 -505 916 -921 916 -925 0 -4 -429 -437
-954 -963 -1032 -1033 -1016 -1016 -1101 -1209 -63 -143 -87 -255 -91 -426 -3
-121 0 -167 16 -240 55 -251 147 -419 338 -611 24 -24 47 -44 50 -44 15 0
2331 2328 2378 2390 52 68 119 167 142 210 39 71 87 166 87 170 1 3 9 23 19
45 19 42 74 206 80 240 3 11 12 53 20 93 9 40 19 103 23 140 10 84 9 348 -1
422 -30 225 -105 453 -210 642 -127 228 -131 232 -1352 1455 -622 623 -1135
1133 -1140 1133 -5 -1 -34 -26 -64 -58z"/>
</g>
</svg>
