<?xml version="1.0" standalone="no"?>
<!DOCTYPE svg PUBLIC "-//W3C//DTD SVG 20010904//EN"
 "http://www.w3.org/TR/2001/REC-SVG-20010904/DTD/svg10.dtd">
<svg version="1.0" xmlns="http://www.w3.org/2000/svg"
 width="600.000000pt" height="600.000000pt" viewBox="0 0 600.000000 600.000000"
 preserveAspectRatio="xMidYMid meet">
<metadata>
Created by potrace 1.14, written by Peter Selinger 2001-2017
</metadata>
<g transform="translate(0.000000,600.000000) scale(0.100000,-0.100000)"
fill="#000000" stroke="none">
<path d="M1535 4996 c-927 -927 -1064 -1070 -1134 -1187 -43 -71 -118 -227
-144 -299 -31 -86 -66 -228 -75 -309 -9 -76 -8 -367 2 -416 4 -22 9 -55 12
-74 2 -19 6 -37 9 -41 2 -4 7 -21 10 -39 3 -18 17 -65 31 -104 13 -40 26 -79
28 -88 16 -66 169 -323 245 -413 14 -17 475 -480 1023 -1029 l998 -998 60 63
c113 118 188 237 235 372 27 81 29 88 42 161 9 53 10 249 1 300 -32 186 -112
361 -220 482 -18 20 -390 393 -826 830 l-794 793 805 804 c442 442 827 835
855 873 53 70 119 193 138 258 42 142 48 181 48 310 0 129 -9 207 -32 265 -5
14 -10 30 -11 35 -6 42 -71 175 -125 255 -37 55 -118 146 -161 181 -19 16 -54
-17 -1020 -985z"/>
<path d="M3400 5938 c-30 -33 -62 -67 -71 -76 -24 -26 -73 -101 -107 -165 -33
-62 -75 -167 -67 -167 3 0 1 -9 -5 -21 -7 -11 -14 -32 -16 -45 -2 -13 -7 -36
-10 -51 -13 -62 -12 -250 2 -323 8 -41 17 -88 20 -105 3 -16 10 -34 15 -40 5
-5 9 -15 9 -23 0 -27 80 -177 130 -244 28 -36 413 -429 856 -872 l807 -807
-806 -804 c-443 -442 -828 -835 -856 -872 -52 -71 -96 -150 -130 -240 -22 -56
-23 -61 -45 -167 -13 -68 -15 -270 -2 -328 3 -16 8 -38 10 -51 7 -43 58 -178
87 -234 43 -82 108 -169 178 -241 l62 -63 993 993 c546 546 1010 1016 1033
1043 66 81 152 219 194 313 55 119 56 122 70 167 6 22 15 51 20 65 13 42 27
102 34 150 4 25 9 56 12 70 12 57 10 340 -2 422 -12 77 -37 186 -52 228 -4 8
-7 20 -9 27 -10 50 -85 213 -142 308 -86 145 -173 236 -1148 1213 -551 551
-1004 1002 -1006 1001 -2 0 -28 -27 -58 -61z"/>
<path d="M2898 4115 c-1 -1 -28 -5 -58 -8 -30 -4 -76 -13 -102 -21 -27 -8 -48
-12 -48 -9 0 3 -7 0 -15 -7 -8 -7 -15 -10 -15 -6 0 4 -19 -3 -42 -15 -24 -12
-44 -21 -46 -20 -6 4 -122 -52 -122 -59 0 -4 -11 -11 -25 -14 -14 -4 -25 -11
-25 -16 0 -6 -6 -10 -13 -10 -8 0 -25 -9 -38 -20 -84 -71 -137 -119 -163 -149
-17 -19 -38 -42 -47 -52 -51 -52 -136 -200 -178 -306 -24 -60 -56 -187 -66
-256 -8 -63 -8 -228 0 -292 10 -72 53 -237 65 -249 5 -5 10 -17 10 -25 0 -19
64 -142 104 -202 55 -80 119 -153 184 -209 35 -30 69 -60 75 -65 79 -68 272
-160 402 -191 83 -20 141 -27 251 -29 119 -3 155 1 299 29 40 8 171 59 235 91
143 72 302 210 396 340 84 118 168 309 189 430 15 91 19 130 18 225 0 160 -10
224 -55 355 -130 383 -443 658 -848 745 -49 11 -313 23 -322 15z"/>
</g>
</svg>
