<?xml version="1.0" standalone="no"?>
<!DOCTYPE svg PUBLIC "-//W3C//DTD SVG 20010904//EN"
 "http://www.w3.org/TR/2001/REC-SVG-20010904/DTD/svg10.dtd">
<svg version="1.0" xmlns="http://www.w3.org/2000/svg"
 width="700.000000pt" height="700.000000pt" viewBox="0 0 700.000000 700.000000"
 preserveAspectRatio="xMidYMid meet">
<metadata>
Created by potrace 1.14, written by Peter Selinger 2001-2017
</metadata>
<g transform="translate(0.000000,700.000000) scale(0.100000,-0.100000)"
fill="#000000" stroke="none">
<path d="M2790 6839 c-85 -87 -604 -609 -1152 -1161 -548 -552 -1017 -1028
-1043 -1058 -66 -78 -165 -231 -215 -329 -87 -174 -158 -398 -175 -555 -3 -28
-8 -64 -11 -81 -4 -16 -6 -100 -6 -185 0 -350 101 -689 290 -976 75 -115 147
-200 286 -341 61 -61 568 -571 1126 -1133 l1015 -1022 81 86 c44 46 102 117
128 155 85 128 160 310 180 441 3 19 8 46 11 60 6 31 8 257 2 268 -3 4 -8 30
-11 57 -29 219 -146 443 -332 635 -97 99 -1063 1073 -1434 1445 l-330 331 508
511 c279 282 701 707 938 945 237 239 456 468 486 509 115 155 184 321 216
514 15 96 5 337 -17 413 -5 18 -10 36 -11 40 -8 65 -81 233 -141 327 -52 80
-172 218 -219 251 -12 8 -45 -21 -170 -147z"/>
<path d="M4013 6916 c-220 -236 -327 -503 -322 -811 4 -307 111 -559 336 -795
70 -73 1061 -1072 1459 -1470 l314 -316 -335 -339 c-185 -187 -608 -612 -939
-945 -397 -399 -624 -634 -665 -690 -151 -206 -223 -440 -216 -700 4 -134 5
-143 36 -264 19 -75 28 -100 77 -206 49 -106 126 -212 231 -320 l58 -60 581
582 c1182 1186 1695 1705 1762 1783 209 246 371 601 405 890 3 28 8 70 12 95
7 52 7 309 -1 360 -5 41 -24 152 -31 195 -32 172 -139 426 -253 599 -99 151
-139 195 -638 696 -254 256 -761 766 -1126 1134 l-664 669 -81 -87z"/>
</g>
</svg>
