<svg xmlns="http://www.w3.org/2000/svg" xmlns:xlink="http://www.w3.org/1999/xlink" viewBox="0 0 141.43 150"><defs><linearGradient id="linear-gradient" x1="13.92" y1="112.5" x2="67.95" y2="112.5" gradientUnits="userSpaceOnUse"><stop offset="0.1" stop-color="#2e3192"/><stop offset="1" stop-color="#0071bc"/></linearGradient><linearGradient id="linear-gradient-2" x1="67.39" y1="260.8" x2="121.42" y2="260.8" gradientTransform="translate(194.91 298.3) rotate(180)" gradientUnits="userSpaceOnUse"><stop offset="0.1" stop-color="#911c24"/><stop offset="1" stop-color="#ed1c24"/></linearGradient></defs><g id="Layer_1" data-name="Layer 1"><path d="M60.88,148.31,59.19,150,40.44,131.25,21.69,112.49h0a26.54,26.54,0,0,1,0-37.51L40.44,93.75l18.75,18.74,1.69,1.71A24.12,24.12,0,0,1,60.88,148.31Z" style="fill:url(#linear-gradient)"/><path d="M60.88,35.8l-1.69,1.7L40.44,56.25,21.68,75a26.54,26.54,0,0,0,0,37.51L11.19,102a37.75,37.75,0,0,1-7-9.53,38.15,38.15,0,0,1,0-34.92,37.63,37.63,0,0,1,7-9.54L21.68,37.5,40.44,18.74,59.19,0l1.69,1.69A24.12,24.12,0,0,1,60.88,35.8Z" style="fill:#0071bc"/><path d="M80.55,1.69,82.24,0,101,18.75l18.74,18.76h0a26.54,26.54,0,0,1,0,37.51L101,56.25,82.24,37.51,80.55,35.8A24.12,24.12,0,0,1,80.55,1.69Z" style="fill:url(#linear-gradient-2)"/><path d="M80.55,114.2l1.69-1.7L101,93.75,119.75,75a26.54,26.54,0,0,0,0-37.51L130.25,48a38.17,38.17,0,0,1,0,54l-10.5,10.5L101,131.26,82.24,150l-1.69-1.69A24.12,24.12,0,0,1,80.55,114.2Z" style="fill:#ed1c24"/></g><g id="Layer_2" data-name="Layer 2"><path d="M70.73,47v56A28,28,0,0,1,42.88,75h0A28,28,0,0,1,70.73,47Z" style="fill:#ed1c24"/><path d="M98.88,75h0a28,28,0,0,1-28,28h-.15V47h.15A28,28,0,0,1,98.88,75Z" style="fill:#0071bc"/></g><g id="Layer_3" data-name="Layer 3"><text transform="translate(49.1 87.8)" style="font-size:37px;fill:#fff;font-family:Calibri-Bold, Calibri;font-weight:700">1</text><text transform="translate(71.87 87.67) rotate(-0.2)" style="font-size:32px;fill:#fff;font-family:NotoSans-SemiBold, Noto Sans;font-weight:600">B</text></g></svg>