<svg id="Layer_1" data-name="Layer 1" xmlns="http://www.w3.org/2000/svg" xmlns:xlink="http://www.w3.org/1999/xlink" viewBox="0 0 700 400"><script xmlns=""/><defs><linearGradient id="linear-gradient" x1="61.44" y1="206.32" x2="655.48" y2="206.32" gradientTransform="translate(-13 18)" gradientUnits="userSpaceOnUse"><stop offset="0" stop-color="#2483c5" stop-opacity="0"/><stop offset="0.75" stop-color="#2483c5" stop-opacity="0.11"/><stop offset="1" stop-color="#2483c5" stop-opacity="0.15"/></linearGradient></defs><title>feature-in-depth-analysis</title><line x1="48.44" y1="320.31" x2="642.48" y2="320.31" fill="none" stroke-miterlimit="10" stroke="url(#linear-gradient)"/><line x1="48.44" y1="272.35" x2="642.48" y2="272.35" fill="none" stroke-miterlimit="10" stroke="url(#linear-gradient)"/><line x1="48.44" y1="224.32" x2="642.48" y2="224.32" fill="none" stroke-miterlimit="10" stroke="url(#linear-gradient)"/><line x1="48.44" y1="176.3" x2="642.48" y2="176.3" fill="none" stroke-miterlimit="10" stroke="url(#linear-gradient)"/><line x1="48.44" y1="128.34" x2="642.48" y2="128.34" fill="none" stroke-miterlimit="10" stroke="url(#linear-gradient)"/><line x1="543.42" y1="80.32" x2="543.42" y2="368.33" fill="none" stroke-miterlimit="10" stroke="url(#linear-gradient)"/><line x1="444.51" y1="80.32" x2="444.51" y2="368.33" fill="none" stroke-miterlimit="10" stroke="url(#linear-gradient)"/><line x1="345.46" y1="80.32" x2="345.46" y2="368.33" fill="none" stroke-miterlimit="10" stroke="url(#linear-gradient)"/><line x1="246.41" y1="80.32" x2="246.41" y2="368.33" fill="none" stroke-miterlimit="10" stroke="url(#linear-gradient)"/><line x1="147.5" y1="80.32" x2="147.5" y2="368.33" fill="none" stroke-miterlimit="10" stroke="url(#linear-gradient)"/><line x1="55.44" y1="362.12" x2="137.99" y2="283.57" fill="none" stroke="#269af2" stroke-miterlimit="10" stroke-width="9"/><line x1="137.99" y1="283.57" x2="267.34" y2="268.29" fill="none" stroke="#269af2" stroke-miterlimit="10" stroke-width="9"/><line x1="267.34" y1="268.29" x2="408.37" y2="184.44" fill="none" stroke="#269af2" stroke-miterlimit="10" stroke-width="9"/><line x1="408.37" y1="184.44" x2="542.52" y2="173.56" fill="none" stroke="#269af2" stroke-miterlimit="10" stroke-width="9"/><line x1="542.52" y1="176.56" x2="639.48" y2="91.32" fill="none" stroke="#269af2" stroke-miterlimit="10" stroke-width="9"/><circle cx="137.99" cy="283.57" r="10" transform="translate(-154.34 401.88) rotate(-86.09)" fill="#fff" stroke="#324a5e" stroke-miterlimit="10" stroke-width="10"/><circle cx="267.34" cy="268.28" r="10" transform="translate(-18.56 516.7) rotate(-86.09)" fill="#fff" stroke="#d0d2d3" stroke-miterlimit="10" stroke-width="4"/><circle cx="408.37" cy="184.44" r="10" transform="translate(196.51 579.28) rotate(-86.09)" fill="#fff" stroke="#324a5e" stroke-miterlimit="10" stroke-width="10"/><circle cx="542.52" cy="173.56" r="10" transform="translate(332.38 702.98) rotate(-86.09)" fill="#fff" stroke="#324a5e" stroke-miterlimit="10" stroke-width="10"/><circle cx="639.48" cy="91.32" r="10" transform="translate(504.77 723.08) rotate(-86.09)" fill="#fff" stroke="#d0d2d3" stroke-miterlimit="10" stroke-width="4"/><circle cx="55.44" cy="362.12" r="10" transform="translate(-309.62 392.73) rotate(-86.09)" fill="#fff" stroke="#d0d2d3" stroke-miterlimit="10" stroke-width="4"/><path d="M119,271.52a21,21,0,0,1,28.68-8" fill="none" stroke="#d0d2d3" stroke-linecap="round" stroke-miterlimit="10" stroke-width="4"/><path d="M427.27,197.09a21,21,0,0,1-28.68,8" fill="none" stroke="#d0d2d3" stroke-linecap="round" stroke-miterlimit="10" stroke-width="4"/><path d="M552.33,153.58a21,21,0,0,0-28.74,7.8" fill="none" stroke="#d0d2d3" stroke-linecap="round" stroke-miterlimit="10" stroke-width="4"/><line x1="130.33" y1="260.77" x2="130.33" y2="160.56" fill="none" stroke="#d0d2d3" stroke-linecap="round" stroke-miterlimit="10" stroke-width="4"/><circle cx="130.33" cy="127.98" r="32.32" fill="#84dbff"/><line x1="414.63" y1="207.83" x2="414.63" y2="273.25" fill="none" stroke="#d0d2d3" stroke-linecap="round" stroke-miterlimit="10" stroke-width="4"/><circle cx="414.62" cy="303.72" r="32.32" fill="#6ac397"/><line x1="535.96" y1="150.39" x2="535.96" y2="84.97" fill="none" stroke="#d0d2d3" stroke-linecap="round" stroke-miterlimit="10" stroke-width="4"/><circle cx="536.22" cy="54.32" r="32.32" fill="#8697cb"/><g id="Layer_2" data-name="Layer 2"><path d="M419.13,320c-0.32.08-.66,0.15-1,0.21a1.59,1.59,0,1,0,.58,3.13c0.39-.07.79-0.16,1.18-0.26A1.59,1.59,0,0,0,419.13,320Z" fill="#fff"/><path d="M430.89,298.65a1.59,1.59,0,0,0,3-1c-0.12-.38-0.27-0.76-0.42-1.13a1.59,1.59,0,0,0-3,1.18C430.67,298,430.79,298.33,430.89,298.65Z" fill="#fff"/><path d="M424.3,317.7c-0.28.19-.57,0.37-0.86,0.53a1.59,1.59,0,0,0-.58,2.17,1.56,1.56,0,0,0,.46.5A1.59,1.59,0,0,0,425,321c0.35-.2.69-0.41,1-0.63A1.59,1.59,0,1,0,424.3,317.7Z" fill="#fff"/><path d="M434.9,303.09a1.59,1.59,0,0,0-3.18.13c0,0.33,0,.68,0,1a1.59,1.59,0,1,0,3.18.07C434.92,303.9,434.92,303.5,434.9,303.09Z" fill="#fff"/><path d="M430.63,313.52a1.59,1.59,0,0,0-2.23.32c-0.2.27-.41,0.54-0.63,0.79a1.59,1.59,0,0,0,.18,2.24l0.12,0.09a1.59,1.59,0,0,0,2.12-.27c0.26-.3.51-0.62,0.76-0.94A1.59,1.59,0,0,0,430.63,313.52Z" fill="#fff"/><path d="M433,307.77a1.59,1.59,0,0,0-2,1c-0.1.32-.21,0.64-0.33,1a1.59,1.59,0,0,0,.57,1.87,1.47,1.47,0,0,0,.35.18,1.59,1.59,0,0,0,2.05-.92c0.14-.37.27-0.76,0.39-1.14A1.59,1.59,0,0,0,433,307.77Z" fill="#fff"/><path d="M412.19,320.2a16.4,16.4,0,0,1-4.08-1.3l0,0c-0.3-.14-0.61-0.3-0.9-0.46h0a17.33,17.33,0,0,1-1.58-1,16.59,16.59,0,0,1,.07-27.19l0.06,0a16.63,16.63,0,0,1,18.63-.15l-1.24,1.8c-0.35.5-.13,0.86,0.47,0.81l5.4-.48a0.89,0.89,0,0,0,.81-1.17l-1.45-5.22c-0.16-.59-0.58-0.66-0.92-0.16l-1.25,1.8a19.65,19.65,0,0,0-14.4-3.06q-0.76.13-1.51,0.32h0l-0.06,0A19.61,19.61,0,0,0,399.3,292l-0.07.08-0.27.37-0.42.62,0,0.08a19.59,19.59,0,0,0-3.13,11.57,0.29,0.29,0,0,0,0,0c0,0.4,0,.8.09,1.2a0.35,0.35,0,0,0,0,.08c0,0.4.1,0.8,0.17,1.2a19.64,19.64,0,0,0,5.54,10.65l0,0h0a19.9,19.9,0,0,0,2.53,2.12,19.61,19.61,0,0,0,7.89,3.3A1.59,1.59,0,1,0,412.19,320.2Z" fill="#fff"/><path d="M414.16,291a1.29,1.29,0,0,0-1.29,1.29v12.82l11.73,6.06a1.28,1.28,0,0,0,.59.14,1.29,1.29,0,0,0,.59-2.43l-10.34-5.34V292.3A1.29,1.29,0,0,0,414.16,291Z" fill="#fff"/></g><path d="M533.69,61.39H521a0.54,0.54,0,0,1-.54-0.54V40.13a0.54,0.54,0,0,1,.54-0.54H551.5a0.54,0.54,0,0,1,.54.54v4.54a5.5,5.5,0,0,1,2.45.88V40.13a3,3,0,0,0-3-3H521a3,3,0,0,0-3,3V60.85a3,3,0,0,0,3,3h10.24v4h-1.62a1.83,1.83,0,0,0,0,3.67h5.15a5.51,5.51,0,0,1-1-3.2V61.39h0Z" fill="#fff"/><path d="M544,69.66V67h-5.37V50.14a0.65,0.65,0,0,1,.65-0.64h12.16a0.65,0.65,0,0,1,.65.64v5.22h0.91a3,3,0,0,1,1.53.43V50.14A3.09,3.09,0,0,0,551.39,47H539.23a3.09,3.09,0,0,0-3.09,3.09V68.31a3.09,3.09,0,0,0,3.09,3.09h5.28A3.24,3.24,0,0,1,544,69.66Z" fill="#fff"/><path d="M552.95,56.89H547a1.53,1.53,0,0,0-1.53,1.53V69.66A1.53,1.53,0,0,0,547,71.19h5.93a1.53,1.53,0,0,0,1.53-1.53V58.42A1.53,1.53,0,0,0,552.95,56.89Zm-5.63,1.83h5.33v9.71h-5.33V58.72ZM550,70.44a0.66,0.66,0,0,1-.65-0.65,0.65,0.65,0,1,1,1.29,0A0.66,0.66,0,0,1,550,70.44Z" fill="#fff"/><path d="M147.95,140l-7.29-7,5.2-2.9a1.17,1.17,0,0,0,.61-1.11,1.19,1.19,0,0,0-.77-1L122.51,119a1.26,1.26,0,0,0-1.32.26,1.15,1.15,0,0,0-.27,1.27l9.25,22.39a1.24,1.24,0,0,0,2.2.15l3-5,7.29,7a1.25,1.25,0,0,0,1.73,0l3.56-3.43A1.15,1.15,0,0,0,147.95,140Zm-4.42,2.6L136,135.27a1.25,1.25,0,0,0-.87-0.35h-0.16a1.23,1.23,0,0,0-.9.58l-2.54,4.24-7.26-17.57,18.2,7-4.4,2.45a1.18,1.18,0,0,0-.6.87,1.16,1.16,0,0,0,.35,1l7.55,7.29Z" fill="#fff"/><path d="M117.06,113.58a1.26,1.26,0,0,0-1.73,0,1.16,1.16,0,0,0,0,1.67l2.72,2.63a1.26,1.26,0,0,0,1.73,0,1.15,1.15,0,0,0,0-1.67Z" fill="#fff"/><path d="M118,121.75a1.2,1.2,0,0,0-1.22-1.18h-3.85a1.18,1.18,0,1,0,0,2.36h3.85A1.2,1.2,0,0,0,118,121.75Z" fill="#fff"/><path d="M117.48,125.4L114.76,128a1.15,1.15,0,0,0,0,1.67,1.26,1.26,0,0,0,1.73,0l2.72-2.63a1.15,1.15,0,0,0,0-1.67A1.26,1.26,0,0,0,117.48,125.4Z" fill="#fff"/><path d="M123.79,116.14A1.2,1.2,0,0,0,125,115v-3.72a1.22,1.22,0,0,0-2.45,0V115A1.2,1.2,0,0,0,123.79,116.14Z" fill="#fff"/><path d="M128.44,117.68a1.24,1.24,0,0,0,.87-0.35L132,114.7a1.15,1.15,0,0,0,0-1.67,1.26,1.26,0,0,0-1.73,0l-2.72,2.63a1.16,1.16,0,0,0,0,1.67A1.25,1.25,0,0,0,128.44,117.68Z" fill="#fff"/></svg>